<?xml version="1.0" standalone="no"?>
<!DOCTYPE svg PUBLIC "-//W3C//DTD SVG 20010904//EN"
 "http://www.w3.org/TR/2001/REC-SVG-20010904/DTD/svg10.dtd">
<svg version="1.0" xmlns="http://www.w3.org/2000/svg"
 width="491.000000pt" height="491.000000pt" viewBox="0 0 491.000000 491.000000"
 preserveAspectRatio="xMidYMid meet">

<g transform="translate(0.000000,491.000000) scale(0.100000,-0.100000)"
fill="#000000" stroke="none">
<path d="M3653 4537 c-22 -21 -49 -37 -60 -37 -13 0 -31 -18 -53 -52 -62 -99
-115 -144 -259 -219 -42 -22 -87 -46 -101 -53 -14 -8 -50 -25 -80 -39 -30 -15
-66 -33 -80 -40 -14 -8 -50 -25 -80 -37 -30 -12 -106 -46 -168 -76 -62 -30
-118 -54 -125 -54 -6 0 -23 -9 -37 -20 -14 -11 -30 -20 -37 -20 -18 0 -145
-61 -166 -79 -21 -18 -82 -54 -172 -102 -63 -33 -94 -56 -174 -126 -26 -24
-52 -43 -58 -43 -11 0 -142 -138 -196 -207 -83 -106 -93 -119 -115 -151 -21
-29 -66 -128 -94 -207 -11 -30 -28 -185 -29 -260 -1 -114 21 -211 75 -325 14
-30 26 -63 26 -72 0 -9 10 -33 23 -51 12 -19 30 -48 39 -63 10 -16 33 -49 53
-74 19 -25 45 -59 57 -76 13 -18 48 -65 79 -105 78 -101 155 -229 163 -270 38
-189 42 -261 16 -349 -12 -41 -27 -93 -33 -115 -6 -22 -19 -55 -29 -73 -10
-18 -18 -39 -18 -47 0 -38 -121 -175 -169 -190 -21 -6 -30 -45 -11 -45 6 0 33
-20 59 -45 26 -25 52 -45 57 -45 5 0 63 -54 129 -121 116 -116 149 -140 208
-153 16 -4 48 -25 72 -47 59 -55 85 -48 50 13 -14 24 -25 53 -25 66 0 13 -8
37 -17 55 -19 37 -31 105 -43 262 -5 61 -14 139 -21 175 -15 87 -16 274 0 330
7 25 16 77 21 115 13 113 46 196 158 395 51 90 70 117 117 172 22 26 63 75 90
109 81 98 450 459 470 459 5 0 39 29 76 65 37 36 72 65 78 65 22 0 10 37 -19
58 -20 15 -44 22 -75 22 -38 0 -47 4 -56 24 -13 27 -4 96 12 96 20 0 131 116
154 160 13 25 35 59 49 75 43 49 32 85 -26 85 -11 0 -42 18 -68 40 -26 22 -55
40 -63 40 -9 0 -19 10 -23 22 -8 25 22 55 65 64 64 14 139 63 146 95 4 15 15
35 27 45 11 11 31 40 44 66 13 26 28 49 33 52 12 8 41 65 41 82 0 6 9 29 19
51 24 48 51 135 61 193 4 25 15 71 24 103 9 32 16 80 16 106 0 26 7 70 15 97
15 51 20 214 6 248 -7 18 -11 16 -48 -17z"/>
</g>
</svg>
