<?xml version="1.0" standalone="no"?>
<!DOCTYPE svg PUBLIC "-//W3C//DTD SVG 20010904//EN"
 "http://www.w3.org/TR/2001/REC-SVG-20010904/DTD/svg10.dtd">
<svg version="1.0" xmlns="http://www.w3.org/2000/svg"
 width="310.000000pt" height="310.000000pt" viewBox="0 0 310.000000 310.000000"
 preserveAspectRatio="xMidYMid meet">

<g transform="translate(0.000000,310.000000) scale(0.100000,-0.100000)"
fill="#000000" stroke="none">
<path d="M2149 2725 c-19 -13 -43 -34 -52 -48 -46 -71 -141 -126 -462 -272
-315 -143 -452 -240 -584 -415 -87 -115 -104 -168 -105 -315 -1 -116 0 -123
36 -208 24 -57 64 -125 116 -195 106 -143 132 -187 148 -247 21 -76 17 -153
-11 -240 -34 -103 -47 -127 -95 -167 -22 -19 -40 -40 -40 -45 0 -6 21 -28 47
-49 27 -21 77 -66 113 -100 36 -34 81 -69 100 -78 19 -8 43 -21 52 -28 27 -20
29 -5 8 60 -21 63 -37 180 -47 338 -4 64 0 118 12 188 38 212 194 430 484 676
111 94 121 117 61 134 -63 18 -65 40 -9 98 52 54 99 122 99 143 0 8 -8 19 -17
22 -36 13 -93 56 -93 70 0 8 23 24 51 35 43 18 57 32 96 91 57 87 88 166 114
282 22 103 36 279 23 287 -5 3 -25 -5 -45 -17z"/>
</g>
</svg>
